<svg width="39" height="39" viewBox="0 0 39 39" fill="none" xmlns="http://www.w3.org/2000/svg">
<path d="M29.7589 7.17706C28.4962 7.17706 27.4622 8.2008 27.4622 9.47502C27.4622 10.7492 28.4853 11.773 29.7589 11.773C31.0324 11.773 32.0555 10.7492 32.0555 9.47502C32.0555 8.2008 31.0324 7.17706 29.7589 7.17706ZM19.5707 10.1176C14.259 10.1176 9.93776 14.4412 9.93776 19.7559C9.93776 25.0707 14.259 29.3943 19.5707 29.3943C24.8825 29.3943 29.2037 25.0707 29.2037 19.7559C29.2037 14.4412 24.8825 10.1176 19.5707 10.1176ZM19.5707 25.931C16.1638 25.931 13.3991 23.1648 13.3991 19.7559C13.3991 16.3471 16.1638 13.5809 19.5707 13.5809C22.9777 13.5809 25.7424 16.3471 25.7424 19.7559C25.7424 23.1648 22.9777 25.931 19.5707 25.931ZM39 11.7512C39 5.26028 33.7427 1.68807e-05 27.2554 1.68807e-05H11.7555C5.25733 -0.0108739 0 5.24939 0 11.7403V27.2488C0 33.7397 5.25733 39 11.7446 39H27.2445C33.7318 39 38.9891 33.7397 38.9891 27.2488V11.7403L39 11.7512ZM35.321 27.2597C35.321 31.7141 31.7072 35.3298 27.2554 35.3298H11.7555C7.30366 35.3298 3.68992 31.7141 3.68992 27.2597V11.7512C3.68992 7.29686 7.30366 3.68111 11.7555 3.68111H27.2554C31.7072 3.68111 35.321 7.29686 35.321 11.7512V27.2597Z" fill="#BCF126"/>
</svg>
