<svg width="445" height="151" viewBox="0 0 445 151" fill="none" xmlns="http://www.w3.org/2000/svg">
<g clip-path="url(#clip0_297_1035)">
<mask id="mask0_297_1035" style="mask-type:luminance" maskUnits="userSpaceOnUse" x="0" y="0" width="445" height="151">
<path d="M445 0H0V151H445V0Z" fill="white"/>
</mask>
<g mask="url(#mask0_297_1035)">
<path d="M436.312 136.486C435.486 139.198 434.791 141.591 434.245 143.632C433.647 141.267 432.975 138.88 432.201 136.463L431.153 133.251H427.76L431.501 143.808C431.899 144.928 432.098 145.798 432.098 146.395C432.098 147.589 431.398 148.464 429.98 148.464H428.785V150.932C429.183 150.983 429.633 151.006 430.157 151.006C431.705 151.006 432.873 150.733 433.698 150.159C434.524 149.584 435.167 148.567 435.691 147.146L440.65 133.251H437.359L436.312 136.486ZM422.522 132.95C420.802 132.95 419.481 133.672 418.508 135.093V133.251H415.467V146.1H418.61V138.908C418.61 136.793 419.96 135.673 421.48 135.673C423.102 135.673 423.9 136.492 423.9 138.112V146.105H427.042V137.589C427.042 134.599 425.294 132.956 422.527 132.956M406.722 144.155C405.299 144.155 404.553 143.507 404.553 142.41C404.553 141.313 405.173 140.767 406.87 140.568L408.567 140.369C409.239 140.295 409.74 140.119 410.036 139.846V141.017C410.036 143.109 408.589 144.155 406.722 144.155ZM413.606 146.1C413.258 145.599 413.082 144.781 413.082 143.661V136.816C413.082 134.252 411.288 132.956 407.718 132.956C404.148 132.956 402.11 134.422 401.934 137.339H405.025C405.151 135.821 405.874 135.298 407.69 135.298C409.409 135.298 410.036 135.821 410.036 136.89C410.036 137.811 409.489 138.186 408.214 138.356L406.266 138.533C402.976 138.857 401.33 140.176 401.33 142.541C401.33 144.906 403.175 146.401 405.965 146.401C407.832 146.401 409.233 145.781 410.104 144.536C410.178 145.281 410.28 145.804 410.451 146.105H413.594L413.606 146.1ZM391.292 142.74C390.695 142.04 390.393 141.023 390.393 139.675C390.393 136.986 391.64 135.542 393.706 135.542C395.773 135.542 397.02 136.913 397.02 139.573C397.02 140.92 396.724 141.961 396.149 142.683C395.551 143.428 394.726 143.803 393.706 143.803C392.687 143.803 391.862 143.456 391.287 142.734M394.452 132.95C392.63 132.95 391.258 133.672 390.336 135.093V133.251H387.318V150.977H390.461V144.428C391.383 145.747 392.704 146.395 394.452 146.395C396.2 146.395 397.618 145.775 398.666 144.553C399.685 143.331 400.208 141.716 400.208 139.675C400.208 137.635 399.685 135.992 398.666 134.769C397.618 133.547 396.223 132.95 394.452 132.95ZM380.292 132.95C378.624 132.95 377.275 133.746 376.301 135.338C375.601 133.746 374.28 132.95 372.31 132.95C370.738 132.95 369.514 133.672 368.643 135.093V133.251H365.603V146.1H368.746V139.027C368.746 136.765 369.919 135.667 371.388 135.667C372.856 135.667 373.631 136.486 373.631 138.106V146.1H376.745V139.027C376.745 136.765 377.89 135.667 379.415 135.667C380.941 135.667 381.636 136.486 381.636 138.106V146.1H384.779V137.612C384.779 134.724 383.111 132.956 380.292 132.956M357.102 143.808C355.007 143.808 353.76 142.342 353.76 139.675C353.76 137.009 355.007 135.542 357.102 135.542C359.198 135.542 360.444 137.009 360.444 139.675C360.444 142.342 359.175 143.808 357.102 143.808ZM361.839 144.553C363.035 143.331 363.633 141.716 363.633 139.675C363.633 137.635 363.035 135.992 361.839 134.769C360.644 133.547 359.072 132.95 357.102 132.95C355.132 132.95 353.561 133.57 352.365 134.792C351.141 136.014 350.543 137.657 350.543 139.67C350.543 141.682 351.141 143.331 352.365 144.547C353.561 145.77 355.132 146.389 357.102 146.389C359.072 146.389 360.644 145.77 361.839 144.547M343.312 146.389C346.626 146.389 349.023 144.422 349.348 141.313H346.205C345.977 142.933 344.81 143.78 343.312 143.78C341.416 143.78 340.17 142.387 340.17 139.67C340.17 136.952 341.394 135.565 343.312 135.565C344.781 135.565 345.857 136.361 346.154 137.879H349.296C348.921 134.866 346.677 132.95 343.312 132.95C341.394 132.95 339.845 133.547 338.701 134.769C337.528 135.992 336.953 137.635 336.953 139.675C336.953 141.716 337.528 143.337 338.701 144.553C339.874 145.775 341.394 146.395 343.312 146.395M325.087 132.95C323.368 132.95 322.047 133.672 321.073 135.093V133.251H318.033V146.1H321.176V138.908C321.176 136.793 322.519 135.673 324.045 135.673C325.668 135.673 326.465 136.492 326.465 138.112V146.105H329.608V137.589C329.608 134.599 327.86 132.956 325.093 132.956M309.532 143.808C307.437 143.808 306.19 142.342 306.19 139.675C306.19 137.009 307.437 135.542 309.532 135.542C311.628 135.542 312.874 137.009 312.874 139.675C312.874 142.342 311.605 143.808 309.532 143.808ZM314.269 144.553C315.465 143.331 316.063 141.716 316.063 139.675C316.063 137.635 315.465 135.992 314.269 134.769C313.074 133.547 311.502 132.95 309.532 132.95C307.562 132.95 305.991 133.57 304.795 134.792C303.571 136.014 302.973 137.657 302.973 139.67C302.973 141.682 303.571 143.331 304.795 144.547C305.991 145.77 307.562 146.389 309.532 146.389C311.502 146.389 313.074 145.77 314.269 144.547M301.003 133.246H297.86V146.094H301.003V133.246ZM300.981 128.641H297.889V131.58H300.981V128.641ZM296.021 133.246H293.476V129.511H290.362V133.246H288.369V135.633H290.362V142.905C290.362 145.218 291.609 146.19 294.376 146.19C294.701 146.19 295.247 146.168 296.021 146.088V143.7H294.951C293.881 143.7 293.482 143.399 293.482 142.58V135.633H296.027V133.246H296.021ZM281.884 146.389C285.198 146.389 287.595 144.422 287.919 141.313H284.777C284.555 142.933 283.382 143.78 281.884 143.78C279.988 143.78 278.741 142.387 278.741 139.67C278.741 136.952 279.965 135.565 281.884 135.565C283.353 135.565 284.429 136.361 284.725 137.879H287.868C287.492 134.866 285.249 132.95 281.884 132.95C279.965 132.95 278.417 133.547 277.272 134.769C276.1 135.992 275.524 137.635 275.524 139.675C275.524 141.716 276.1 143.337 277.272 144.553C278.445 145.775 279.965 146.395 281.884 146.395M270.417 140.449C270.417 142.563 269.074 143.683 267.548 143.683C265.925 143.683 265.128 142.865 265.128 141.244V133.251H261.985V141.768C261.985 144.758 263.756 146.395 266.472 146.395C268.191 146.395 269.54 145.673 270.508 144.229V146.094H273.549V133.246H270.406V140.443L270.417 140.449ZM250.649 142.791C250.074 142.12 249.778 141.097 249.778 139.778C249.778 137.089 251.048 135.548 253.069 135.548C255.09 135.548 256.388 136.992 256.388 139.681C256.388 141.028 256.087 142.046 255.517 142.745C254.919 143.467 254.094 143.814 253.075 143.814C252.055 143.814 251.23 143.467 250.655 142.791M256.314 134.923C255.392 133.604 254.071 132.956 252.352 132.956C250.632 132.956 249.157 133.553 248.138 134.775C247.091 135.997 246.567 137.64 246.567 139.681C246.567 141.722 247.091 143.342 248.138 144.559C249.157 145.781 250.581 146.401 252.352 146.401C254.122 146.401 255.466 145.702 256.417 144.309V146.1H259.457V128.374H256.314V134.923ZM238.636 143.808C236.54 143.808 235.294 142.342 235.294 139.675C235.294 137.009 236.54 135.542 238.636 135.542C240.731 135.542 241.978 137.009 241.978 139.675C241.978 142.342 240.708 143.808 238.636 143.808ZM243.373 144.553C244.568 143.331 245.166 141.716 245.166 139.675C245.166 137.635 244.568 135.992 243.373 134.769C242.177 133.547 240.606 132.95 238.636 132.95C236.666 132.95 235.094 133.57 233.899 134.792C232.674 136.014 232.077 137.657 232.077 139.67C232.077 141.682 232.674 143.331 233.899 144.547C235.094 145.77 236.666 146.389 238.636 146.389C240.606 146.389 242.177 145.77 243.373 144.547M230.756 133.047C228.911 133.047 227.641 133.865 226.918 135.537V133.246H223.878V146.094H227.021V139.573C227.021 137.185 228.364 135.986 230.733 135.986H231.53V133.098C231.354 133.075 231.08 133.047 230.756 133.047ZM212.98 142.728C212.383 142.029 212.081 141.011 212.081 139.664C212.081 136.975 213.328 135.531 215.4 135.531C217.473 135.531 218.714 136.901 218.714 139.562C218.714 140.909 218.412 141.949 217.843 142.671C217.245 143.416 216.419 143.791 215.4 143.791C214.381 143.791 213.555 143.445 212.98 142.723M216.146 132.939C214.324 132.939 212.958 133.661 212.03 135.082V133.24H209.012V150.966H212.155V144.417C213.077 145.736 214.398 146.384 216.146 146.384C217.894 146.384 219.312 145.764 220.359 144.542C221.384 143.32 221.902 141.705 221.902 139.664C221.902 137.623 221.378 135.98 220.359 134.758C219.312 133.536 217.917 132.939 216.146 132.939ZM206.894 137.743H199.487V140.432H206.894V137.743ZM191.436 143.791C189.341 143.791 188.094 142.325 188.094 139.658C188.094 136.992 189.341 135.525 191.436 135.525C193.531 135.525 194.778 136.992 194.778 139.658C194.778 142.325 193.508 143.791 191.436 143.791ZM196.173 144.536C197.368 143.314 197.966 141.699 197.966 139.658C197.966 137.617 197.368 135.974 196.173 134.752C194.977 133.53 193.406 132.933 191.436 132.933C189.466 132.933 187.894 133.553 186.699 134.775C185.475 135.997 184.877 137.64 184.877 139.653C184.877 141.665 185.475 143.314 186.699 144.53C187.894 145.753 189.466 146.372 191.436 146.372C193.406 146.372 194.977 145.753 196.173 144.53M177.646 146.372C180.965 146.372 183.357 144.405 183.681 141.296H180.538C180.316 142.916 179.143 143.763 177.646 143.763C175.75 143.763 174.503 142.37 174.503 139.653C174.503 136.935 175.727 135.548 177.646 135.548C179.115 135.548 180.191 136.344 180.487 137.862H183.63C183.254 134.849 181.011 132.933 177.646 132.933C175.727 132.933 174.178 133.53 173.034 134.752C171.861 135.974 171.286 137.617 171.286 139.658C171.286 141.699 171.861 143.32 173.034 144.536C174.207 145.758 175.727 146.378 177.646 146.378M158.698 146.082L165.057 128.357H162.017L155.657 146.082H158.698ZM148.996 146.082L155.355 128.357H152.315L145.955 146.082H148.996ZM133.287 135.378C135.109 135.378 136.253 136.571 136.527 138.442H130.07C130.372 136.378 131.568 135.378 133.287 135.378ZM139.67 139.886C139.67 137.822 139.095 136.128 137.95 134.855C136.806 133.587 135.257 132.939 133.31 132.939C131.363 132.939 129.871 133.558 128.698 134.781C127.525 136.026 126.95 137.646 126.95 139.658C126.95 141.671 127.548 143.32 128.721 144.536C129.894 145.758 131.437 146.378 133.355 146.378C136.424 146.378 138.668 144.712 139.339 142.097H136.322C135.798 143.314 134.824 143.939 133.378 143.939C131.482 143.939 130.264 142.842 130.036 140.631H139.658V139.886H139.67ZM119.725 146.384C123.039 146.384 125.436 144.417 125.76 141.307H122.617C122.395 142.927 121.222 143.774 119.725 143.774C117.829 143.774 116.582 142.381 116.582 139.664C116.582 136.947 117.806 135.559 119.725 135.559C121.194 135.559 122.27 136.355 122.566 137.873H125.709C125.333 134.86 123.09 132.944 119.725 132.944C117.806 132.944 116.258 133.541 115.113 134.764C113.94 135.986 113.365 137.629 113.365 139.67C113.365 141.711 113.94 143.331 115.113 144.547C116.286 145.764 117.806 146.389 119.725 146.389M111.401 133.246H108.258V146.094H111.401V133.246ZM111.378 128.641H108.287V131.58H111.378V128.641ZM102.525 136.679C101.802 138.993 101.13 141.188 100.503 143.251C99.6835 140.488 99.006 138.322 98.4822 136.702L97.2353 133.24H93.8703L98.6302 146.088H102.246L107.034 133.24H103.766L102.519 136.674L102.525 136.679ZM92.3786 133.047C90.5339 133.047 89.2642 133.865 88.5411 135.537V133.246H85.5008V146.094H88.6436V139.573C88.6436 137.185 89.993 135.986 92.3559 135.986H93.153V133.098C92.9764 133.075 92.7032 133.047 92.3786 133.047ZM77.097 135.389C78.919 135.389 80.0634 136.583 80.3367 138.453H73.8801C74.1762 136.389 75.3775 135.389 77.097 135.389ZM83.4795 139.897C83.4795 137.833 82.9045 136.139 81.7601 134.866C80.6157 133.598 79.067 132.95 77.1198 132.95C75.1726 132.95 73.6809 133.57 72.508 134.792C71.3351 136.037 70.7657 137.657 70.7657 139.67C70.7657 141.682 71.3636 143.331 72.5364 144.547C73.7093 145.77 75.2523 146.389 77.1767 146.389C80.2456 146.389 82.4888 144.724 83.1607 142.109H80.1431C79.6193 143.325 78.6457 143.951 77.1995 143.951C75.3035 143.951 74.0851 142.853 73.8574 140.642H83.4795V139.897ZM63.9562 146.446C67.5716 146.446 69.6669 145.002 69.6669 142.416C69.6669 140.227 68.3232 139.079 65.2031 138.504L63.5804 138.254C62.083 137.981 61.4339 137.583 61.4339 136.685C61.4339 135.69 62.1798 135.19 63.6772 135.19C65.3967 135.19 66.319 135.736 66.3931 137.305H69.3594C69.2342 134.394 67.3382 132.95 63.6772 132.95C60.261 132.95 58.3423 134.417 58.3423 136.833C58.3423 138.948 59.7372 140.244 62.5556 140.716L64.0245 140.966C65.9433 141.29 66.5411 141.739 66.5411 142.66C66.5411 143.683 65.6927 144.206 63.996 144.206C62.1001 144.206 61.303 143.609 61.1265 142.018H58.0576C58.2341 144.98 60.2041 146.452 63.9391 146.452M50.952 128.379H47.8092V146.105H50.952V128.379ZM45.2698 128.379H42.1269V146.105H45.2698V128.379ZM36.4447 140.454C36.4447 142.569 35.0954 143.689 33.5752 143.689C31.9525 143.689 31.1554 142.87 31.1554 141.25V133.257H28.0125V141.773C28.0125 144.764 29.7832 146.401 32.4991 146.401C34.2186 146.401 35.5679 145.679 36.5358 144.235V146.1H39.5762V133.251H36.4334V140.449L36.4447 140.454ZM26.3955 130.795V128.379C25.9458 128.328 25.3992 128.305 24.7729 128.305C21.8578 128.305 20.5596 129.874 20.5596 132.291V133.263H18.5669V135.65H20.5596V146.105H23.674V135.65H26.3158V133.263H23.674V132.342C23.674 131.324 24.2206 130.795 25.2967 130.795H26.3955ZM5.38049 144.167C3.95709 144.167 3.21123 143.519 3.21123 142.421C3.21123 141.324 3.83753 140.778 5.52852 140.579L7.22521 140.38C7.89706 140.306 8.3981 140.13 8.69416 139.857V141.028C8.69416 143.121 7.24799 144.167 5.38049 144.167ZM12.264 146.111C11.9167 145.611 11.7402 144.792 11.7402 143.672V136.827C11.7402 134.263 9.94675 132.967 6.38256 132.967C2.81837 132.967 0.774373 134.434 0.597871 137.35H3.68949C3.81475 135.832 4.53784 135.309 6.35979 135.309C8.07926 135.309 8.70555 135.832 8.70555 136.901C8.70555 137.822 8.15897 138.197 6.8836 138.368L4.94208 138.544C1.65119 138.868 0.0057373 140.187 0.0057373 142.552C0.0057373 144.917 1.85046 146.412 4.64602 146.412C6.51352 146.412 7.91414 145.793 8.78526 144.547C8.85928 145.292 8.96176 145.815 9.13257 146.117H12.2754L12.264 146.111Z" fill="#BCF126"/>
</g>
<mask id="mask1_297_1035" style="mask-type:luminance" maskUnits="userSpaceOnUse" x="0" y="0" width="445" height="151">
<path d="M445 0H0V151H445V0Z" fill="white"/>
</mask>
<g mask="url(#mask1_297_1035)">
<path d="M399.423 102.842V55.3551H404.029C417.426 55.3551 425.351 63.0469 425.351 79.0958C425.351 95.1446 417.426 102.836 404.029 102.836H399.423V102.842ZM380.554 39.4143V118.783H404.365C430.823 118.783 445 103.621 445 79.1015C445 54.5819 430.823 39.42 404.365 39.42H380.554V39.4143ZM349.41 56.0259C349.41 69.0674 349.524 81.33 349.86 92.9218C347.07 87.3504 342.937 80.102 337.465 71.0742L318.039 39.4143H297.718V118.783H315.693V102.171C315.693 89.2435 315.579 76.9809 315.243 65.4972C317.811 70.5114 321.944 77.6461 327.638 87.123L347.064 118.783H367.385V39.4143H349.41V56.0259ZM284.549 39.4143H265.68V118.783H284.549V39.4143ZM213.886 73.189C212.098 79.5449 210.316 86.2305 208.528 93.2515C206.632 86.1168 204.844 79.5392 203.056 73.5188L192.563 39.4086H164.317V118.777H182.292V95.48C182.292 81.3243 182.07 68.5046 181.734 57.2482C182.964 61.7053 184.638 67.7257 186.983 75.1959L200.716 118.783H216.123L229.856 75.1959C231.98 68.6183 233.762 62.5978 235.214 57.1345C234.764 67.9474 234.542 80.7672 234.542 95.48V118.777H252.517V39.4143H224.271L213.891 73.189H213.886ZM119.326 39.4143H100.458V118.783H155.72V101.95H119.326V39.4143ZM87.2885 39.4143H68.42V118.783H87.2885V39.4143ZM59.8283 39.4143H1.43481V118.783H20.3034V86.5659H56.8107V70.6251H20.3034V56.2477H59.8226V39.4143H59.8283Z" fill="#D9D9D9"/>
</g>
<mask id="mask2_297_1035" style="mask-type:luminance" maskUnits="userSpaceOnUse" x="0" y="0" width="445" height="151">
<path d="M445 0H0V151H445V0Z" fill="white"/>
</mask>
<g mask="url(#mask2_297_1035)">
<path d="M275.006 30.1022C283.33 30.1022 290.077 23.3655 290.077 15.054C290.077 6.74244 283.33 0 275.006 0C266.682 0 259.935 6.73676 259.935 15.0483C259.935 23.3598 266.682 30.0965 275.006 30.0965" fill="#BCF126"/>
</g>
</g>
<defs>
<clipPath id="clip0_297_1035">
<rect width="445" height="151" fill="white"/>
</clipPath>
</defs>
</svg>
