<svg width="213" height="57" viewBox="0 0 213 57" fill="none" xmlns="http://www.w3.org/2000/svg">
<g clip-path="url(#clip0_172_279)">
<path d="M191.117 49.4452V26.6563H193.33C199.762 26.6563 203.571 30.346 203.571 38.0508C203.571 45.7555 199.762 49.4452 193.33 49.4452H191.117ZM182.056 19.0069V57.0877H193.49C206.194 57.0877 213.007 49.8121 213.007 38.0438C213.007 26.2756 206.201 19 193.49 19H182.056V19.0069ZM167.097 26.9747C167.097 33.2327 167.153 39.1168 167.313 44.6825C165.973 42.0104 163.989 38.5284 161.36 34.1949L152.035 19.0069H142.28V57.0877H150.911V49.1199C150.911 42.9173 150.855 37.0332 150.696 31.5228C151.931 33.9319 153.915 37.3516 156.649 41.8997L165.973 57.0877H175.728V19.0069H167.097V26.9747ZM135.952 19.0069H126.891V57.0877H135.952V19.0069ZM102.018 35.2125C101.158 38.2584 100.304 41.4705 99.4439 44.8418C98.535 41.422 97.6747 38.2654 96.8144 35.3717L91.7773 19.0069H78.2133V57.0877H86.8443V45.9078C86.8443 39.1168 86.7403 32.9627 86.5737 27.5632C87.1635 29.7022 87.9683 32.5889 89.0923 36.1748L95.6835 57.0877H103.08L109.671 36.1748C110.691 33.0181 111.544 30.1314 112.245 27.5078C112.03 32.6997 111.926 38.8469 111.926 45.9078V57.0877H120.557V19.0069H106.993L102.004 35.2125H102.018ZM56.608 19.0069H47.5469V57.0877H74.0851V49.0091H56.608V19.0069ZM41.2263 19.0069H32.1651V57.0877H41.2263V19.0069ZM28.0369 19.0069H0V57.0877H9.06117V41.6297H26.5938V33.9803H9.06117V27.0786H28.0369V19V19.0069Z" fill="#D9D9D9"/>
<path d="M131.186 14.4404C135.182 14.4404 138.422 11.2076 138.422 7.22019C138.422 3.23282 135.182 0 131.186 0C127.189 0 123.949 3.23282 123.949 7.22019C123.949 11.2076 127.189 14.4404 131.186 14.4404Z" fill="#BCF126"/>
</g>
<defs>
<clipPath id="clip0_172_279">
<rect width="213" height="57" fill="white"/>
</clipPath>
</defs>
</svg>
